<svg width="48" height="48" viewBox="0 0 48 48" fill="none" xmlns="http://www.w3.org/2000/svg">
<circle cx="24" cy="24" r="23.5" stroke="#C1C1C1"/>
<path d="M27.5873 27.1996L28.0002 25.5996H19.6131L19.2002 27.1996H27.5873Z" fill="#C1C1C1"/>
<path d="M30.7973 37.6L31.201 36H16.4046L16.001 37.6H30.7973Z" fill="#C1C1C1"/>
<path d="M28.0002 22.3994H19.615L19.2002 23.9994H27.5854L28.0002 22.3994Z" fill="#C1C1C1"/>
<path d="M11.2541 43.1996H9.60059V27.8586C9.60124 27.2598 9.84624 26.6856 10.2819 26.2622C10.7175 25.8387 11.3081 25.6004 11.9243 25.5996H16.8006V27.2073H11.9243C11.7466 27.2074 11.5762 27.2761 11.4506 27.3982C11.3249 27.5203 11.2543 27.6859 11.2541 27.8586V43.1996Z" fill="#C1C1C1"/>
<path d="M37.6004 43.1996H35.9468V27.8586C35.9468 27.686 35.8763 27.5204 35.7508 27.3983C35.6253 27.2761 35.4551 27.2074 35.2775 27.2073H30.4004V25.5996H35.2775C35.8934 25.6004 36.4839 25.8387 36.9193 26.2622C37.3548 26.6856 37.5997 27.2598 37.6004 27.8586V43.1996Z" fill="#C1C1C1"/>
<path d="M31.201 28.7998H29.6651V18.9177C29.4333 18.8298 29.215 18.7089 29.017 18.5586C28.8123 18.4135 28.7272 18.3534 28.4814 18.3534C28.2356 18.3534 28.151 18.4112 27.9464 18.5586C27.6732 18.7517 27.2605 19.0443 26.5306 19.0443C25.8007 19.0443 25.3874 18.7552 25.1142 18.5586C24.9096 18.4135 24.825 18.3534 24.5787 18.3534C24.3323 18.3534 24.2477 18.4112 24.0431 18.5586C23.7699 18.7523 23.3572 19.0443 22.6267 19.0443C21.8962 19.0443 21.4836 18.7552 21.2103 18.5586C21.0057 18.4135 20.9211 18.3534 20.6753 18.3534C20.4296 18.3534 20.3438 18.4112 20.1386 18.5586C19.8654 18.7523 19.4527 19.0443 18.7223 19.0443C18.3042 19.0519 17.8928 18.9375 17.5374 18.7147V28.7998H16.001V16.7998H16.7675C17.4974 16.7998 17.9106 17.0918 18.1838 17.2855C18.389 17.4306 18.4742 17.4901 18.7205 17.4901C18.9669 17.4901 19.0515 17.4323 19.2567 17.2855C19.5305 17.0918 19.9426 16.7998 20.6736 16.7998C21.4047 16.7998 21.8168 17.0918 22.0894 17.2855C22.2941 17.4306 22.3792 17.4901 22.625 17.4901C22.8708 17.4901 22.956 17.4323 23.1611 17.2855C23.4344 17.0918 23.847 16.7998 24.5769 16.7998C25.3069 16.7998 25.7201 17.0918 25.9933 17.2855C26.1979 17.4306 26.2825 17.4901 26.5289 17.4901C26.7752 17.4901 26.8593 17.4323 27.0639 17.2855C27.3417 17.0924 27.7515 16.7998 28.4814 16.7998C29.2113 16.7998 29.6246 17.0918 29.8978 17.2855C30.1024 17.4306 30.187 17.4901 30.4328 17.4901H31.201V28.7998Z" fill="#C1C1C1"/>
<path d="M32.814 32.0203H14.3888V29.5996H12.8008V32.3731C12.8008 33.0499 13.3789 33.5996 14.0894 33.5996H33.1122C33.8209 33.5996 34.4008 33.0499 34.4008 32.3731V29.5996H32.814V32.0203Z" fill="#C1C1C1"/>
</svg>
