<svg width="48" height="48" viewBox="0 0 48 48" fill="none" xmlns="http://www.w3.org/2000/svg">
<circle cx="24" cy="24" r="23.5" stroke="#C1C1C1"/>
<path d="M13 13L14.4943 18.5768L18.5768 14.4943L13 13ZM21.3536 20.6464L16.5355 15.8284L15.8284 16.5355L20.6464 21.3536L21.3536 20.6464Z" fill="#C1C1C1"/>
<path d="M35 35L33.5057 29.4232L29.4232 33.5057L35 35ZM26.6464 27.3536L31.4645 32.1716L32.1716 31.4645L27.3536 26.6464L26.6464 27.3536Z" fill="#C1C1C1"/>
<path d="M35 13L29.4232 14.4943L33.5057 18.5768L35 13ZM27.3536 21.3536L32.1716 16.5355L31.4645 15.8284L26.6464 20.6464L27.3536 21.3536Z" fill="#C1C1C1"/>
<path d="M13 35L18.5768 33.5057L14.4943 29.4232L13 35ZM20.6464 26.6464L15.8284 31.4645L16.5355 32.1716L21.3536 27.3536L20.6464 26.6464Z" fill="#C1C1C1"/>
</svg>
