<svg width="38" height="38" viewBox="0 0 38 38" fill="none" xmlns="http://www.w3.org/2000/svg">
<path d="M11.3142 22.8777H9.2531C9.06988 26.3062 11.467 28.3878 12.6885 29H20.0172L22.3074 25.1225C25.0557 25.1225 24.8267 23.6259 24.3686 22.8777H22.3074M11.3142 22.8777C11.4669 21.7892 12.8258 19.8573 17.0399 20.8369C17.4979 21.1089 18.5056 21.5306 18.8721 21.0408C19.2385 20.551 18.414 19.4762 17.956 19C19.7882 19.2042 23.2235 20.2656 22.3074 22.8777M11.3142 22.8777H22.3074" stroke="white" stroke-linecap="round" stroke-linejoin="round"/>
<path d="M19.839 12.6154L18.4863 13.0549C18.4863 15.6923 21.1917 16.7912 22.5443 17.011L27.7296 28L24.5733 16.1319C26.3769 15.0769 25.7757 12.1758 25.2497 10.8571L23.897 11.2967M19.839 12.6154L18.7118 9.53846M19.839 12.6154L21.1917 12.1758M21.1917 12.1758L20.0644 8.87912M21.1917 12.1758L22.5443 11.7363M22.5443 11.7363L21.4171 8.43956M22.5443 11.7363L23.897 11.2967M23.897 11.2967L22.7698 8" stroke="white" stroke-linecap="round" stroke-linejoin="round"/>
</svg>
