<svg width="38" height="38" viewBox="0 0 38 38" fill="none" xmlns="http://www.w3.org/2000/svg">
<path d="M17.9755 13C16.7853 11.6667 15.3896 9 18.7689 9C22.2602 9 21.0172 11.6667 19.9592 13M17.9755 13V14.4M17.9755 13H19.9592M19.9592 13V14.4M19.9592 14.4H18.9673M19.9592 14.4C20.6543 14.5557 21.7146 15.2389 22.3818 16.8M17.9755 14.4H18.9673M17.9755 14.4C17.0859 14.7139 16.2547 15.6312 15.7901 16.8M18.9673 14.4V16.8M18.9673 16.8H15.7901M18.9673 16.8H22.3818M15.7901 16.8C15.2188 18.2375 15.0004 19.3846 15 21.6C14.9996 23.8452 16.3886 27.4667 17.1821 29H20.7527C21.7984 27.4615 23 24.7692 23 21.6C23 19.4614 22.8571 17.9122 22.3818 16.8M17.1821 18.4V22.4H20.7527V18.4H17.1821Z" stroke="white" stroke-linecap="round"/>
</svg>
