<svg width="88" height="88" viewBox="0 0 88 88" fill="none" xmlns="http://www.w3.org/2000/svg">
<path d="M34.7536 50.8881L30.4873 49.981C30.0735 49.8931 29.7997 49.4982 29.8625 49.0799L30.5524 44.4803C30.5879 44.2439 30.5158 44.0041 30.3559 43.8264L26.8145 39.8915C26.5354 39.5815 26.5415 39.109 26.8284 38.8062L30.3393 35.1002C30.5091 34.9209 30.5866 34.6734 30.5494 34.4293L29.8737 29.9994C29.8062 29.557 30.1148 29.1452 30.5584 29.0858L35.3764 28.4409C35.6421 28.4053 35.8723 28.2391 35.9896 27.9981L38.0918 23.6791C38.2773 23.2979 38.728 23.1276 39.1192 23.2909L43.5864 25.1555C43.7877 25.2395 44.0146 25.2377 44.2145 25.1504L48.4862 23.2864C48.8599 23.1234 49.2963 23.2674 49.4996 23.6207L52.0435 28.0431C52.1671 28.2581 52.3834 28.4035 52.6291 28.4369L57.3626 29.0807C57.8157 29.1423 58.125 29.5705 58.0412 30.02L57.2228 34.4098C57.1752 34.6647 57.2542 34.9268 57.4345 35.113L61.0051 38.8C61.3 39.1045 61.3062 39.5862 61.0191 39.8982L57.4171 43.8134C57.247 43.9983 57.1737 44.2523 57.2189 44.4994L58.0554 49.0619C58.1333 49.4869 57.8597 49.8969 57.4374 49.9882L52.9542 50.9565M34.7536 50.8881L35.4249 51.0308C35.6631 51.0814 35.8652 51.2377 35.9741 51.4555L38.0707 55.6488C38.2659 56.0391 38.7378 56.201 39.1315 56.0128L43.5486 53.9002C43.7713 53.7937 44.0307 53.796 44.2515 53.9064L48.4755 56.0184C48.8512 56.2062 49.3083 56.0715 49.522 55.7098L52.0616 51.412C52.175 51.2201 52.3634 51.0841 52.5814 51.0371L52.9542 50.9565M34.7536 50.8881V55.2487M52.9542 50.9565V67.2071C52.9542 67.8018 52.3284 68.1886 51.7964 67.9227L44.2574 64.1532C44.0333 64.0411 43.7695 64.0405 43.5449 64.1517L35.9084 67.9302C35.3766 68.1933 34.7536 67.8064 34.7536 67.2131V61.3246" stroke="white"/>
<circle cx="43.9486" cy="39.5814" r="9.12441" stroke="white"/>
<path d="M38.9961 38.6744L42.0515 41.7298C42.3639 42.0422 42.8704 42.0422 43.1828 41.7298L49.0493 35.8633" stroke="white"/>
</svg>
