<svg width="88" height="88" viewBox="0 0 88 88" fill="none" xmlns="http://www.w3.org/2000/svg">
<path d="M55.751 30.6512L59.6586 24.2152C59.9822 23.682 59.5984 23 58.9747 23H49.5929C49.3411 23 49.1039 23.1186 48.9529 23.32L44.1451 29.7304C43.8105 30.1765 43.1336 30.1521 42.8321 29.683L38.7721 23.3674C38.6249 23.1384 38.3713 23 38.0991 23H29.3005C28.6768 23 28.293 23.682 28.6167 24.2152L32.5243 30.6512M55.751 30.6512H32.5243M55.751 30.6512C56.5708 30.6512 57.3905 31.4709 57.3905 33.1105C57.3905 33.9849 56.5708 35.2965 55.751 35.2965H44.1376M32.5243 30.6512C32.0688 30.8333 30.6115 31.3616 30.6115 33.1105C30.6115 34.8593 31.9777 35.2965 32.5243 35.2965H44.1376M41.5417 38.5756C41.5417 37.4826 41.1865 35.2965 44.1376 35.2965M44.1376 35.2965C46.4603 35.2965 46.187 38.0291 46.187 38.5756M46.187 56.357V46.7535C46.187 46.3117 45.8289 45.9535 45.387 45.9535H42.6928C42.4807 45.9535 42.2772 46.0378 42.1271 46.1878L38.5551 49.7599C38.2426 50.0723 38.2426 50.5788 38.5551 50.8913L40.2935 52.6297C40.5236 52.8598 40.9015 52.8426 41.1098 52.5927V52.5927C41.4411 52.1951 42.0882 52.4294 42.0882 52.9469V56.357C42.0882 56.7988 41.73 57.157 41.2882 57.157H39.8824C39.4406 57.157 39.0824 57.5149 39.0824 57.9567C39.0824 58.5074 39.0824 59.1379 39.0824 59.6364C39.0824 60.0783 39.4406 60.436 39.8824 60.436H48.1196C48.5614 60.436 48.9196 60.0779 48.9196 59.636V57.957C48.9196 57.5152 48.5614 57.157 48.1196 57.157H46.987C46.5452 57.157 46.187 56.7988 46.187 56.357Z" stroke="white"/>
<path d="M28.2303 58.5C27.8233 57.1182 27.6055 55.6595 27.6055 54.1516C27.6055 45.3985 34.9459 38.3027 44.0008 38.3027C53.0557 38.3027 60.3962 45.3985 60.3962 54.1516C60.3962 62.9046 53.0557 70.0004 44.0008 70.0004C40.6767 70.0004 37.5837 69.0441 35 67.4007" stroke="white"/>
<ellipse cx="44.001" cy="54.1518" rx="13.1163" ry="12.5698" stroke="white"/>
</svg>
