<svg width="88" height="88" viewBox="0 0 88 88" fill="none" xmlns="http://www.w3.org/2000/svg">
<path d="M59.5215 39.947H61.6895C62.1313 39.947 62.4895 39.5888 62.4895 39.147V25.8C62.4895 25.3582 62.1313 25 61.6895 25H26.8C26.3582 25 26 25.3582 26 25.8V39.147C26 39.5888 26.3582 39.947 26.8 39.947H32.6521C33.0939 39.947 33.4521 40.3052 33.4521 40.747V60.9465C33.4521 61.3883 33.8103 61.7465 34.2521 61.7465H54.3659C54.8077 61.7465 55.1659 61.3883 55.1659 60.9465V32.1095M30.7539 32.1095H55.1659M57.5215 32.1095H55.1659" stroke="white"/>
</svg>
