<svg width="38" height="38" viewBox="0 0 38 38" fill="none" xmlns="http://www.w3.org/2000/svg">
<path d="M20.2347 13.4852L20.6968 13.6761L20.2347 13.4852ZM11.0101 10.9257L10.5202 10.8256L11.0101 10.9257ZM19.7734 14.9192C18.4019 14.9192 16.6209 15.412 15.1729 16.5285C13.7073 17.6585 12.5856 19.4283 12.5856 21.9343H13.5856C13.5856 19.7674 14.5395 18.2796 15.7836 17.3204C17.0453 16.3475 18.6082 15.9192 19.7734 15.9192V14.9192ZM12.5856 21.9343C12.5856 24.2194 13.5138 25.8782 14.8387 26.9558C16.1487 28.0212 17.8214 28.5 19.3122 28.5V27.5C18.0171 27.5 16.5766 27.0802 15.4697 26.18C14.3778 25.2918 13.5856 23.9178 13.5856 21.9343H12.5856ZM19.3122 28.5C20.5482 28.5 22.3311 28.2068 23.8204 27.1754C25.3388 26.1239 26.5 24.3389 26.5 21.485H25.5C25.5 24.0228 24.4901 25.4953 23.2511 26.3533C21.9829 27.2316 20.4219 27.5 19.3122 27.5V28.5ZM26.5 21.485C26.5 19.3164 25.6287 17.6613 24.336 16.5555C23.054 15.459 21.3784 14.9192 19.7734 14.9192L19.7734 15.9192C21.1664 15.9192 22.6042 16.3902 23.686 17.3155C24.757 18.2315 25.5 19.6092 25.5 21.485H26.5ZM20.2725 15.4494C20.2995 15.0018 20.4224 14.3403 20.6968 13.6761L19.7725 13.2943C19.4533 14.067 19.3076 14.8378 19.2743 15.3891L20.2725 15.4494ZM20.6968 13.6761C21.1237 12.6427 21.8753 11.6914 23.1117 11.4135L22.8924 10.4378C21.2136 10.8152 20.2653 12.1015 19.7725 13.2943L20.6968 13.6761ZM20.7238 13.3816C20.1907 10.8632 17.635 9.84407 15.4378 9.5787C14.3117 9.4427 13.1996 9.49043 12.3369 9.66451C11.9078 9.7511 11.5173 9.8735 11.2121 10.0353C10.933 10.1833 10.601 10.4306 10.5202 10.8256L11.5 11.0258C11.4869 11.09 11.465 11.0331 11.6805 10.9188C11.8698 10.8184 12.1584 10.7207 12.5347 10.6448C13.2828 10.4938 14.287 10.447 15.3179 10.5715C17.4348 10.8272 19.3561 11.7492 19.7455 13.5887L20.7238 13.3816ZM10.5202 10.8256C10.4624 11.1084 10.5363 11.4084 10.6421 11.6647C10.7535 11.9348 10.9277 12.2219 11.1511 12.506C11.5985 13.0753 12.2729 13.6707 13.1413 14.1298C14.8958 15.0575 17.4281 15.4208 20.4551 13.934L20.0142 13.0364C17.2775 14.3806 15.0829 14.0252 13.6087 13.2458C12.8627 12.8514 12.2974 12.3462 11.9373 11.8881C11.7569 11.6586 11.6354 11.4502 11.5664 11.2832C11.4918 11.1023 11.5004 11.0235 11.5 11.0258L10.5202 10.8256Z" fill="white"/>
</svg>
