<svg id="Layer_1" data-name="Layer 1" xmlns="http://www.w3.org/2000/svg" viewBox="0 0 12 12"><path d="M4,6A2,2,0,1,1,6,8,2,2,0,0,1,4,6ZM2.92,6A3.08,3.08,0,1,0,6,2.92,3.08,3.08,0,0,0,2.92,6ZM8.48,2.8a.81.81,0,0,0,.12.4.7.7,0,0,0,.33.26.64.64,0,0,0,.41,0,.66.66,0,0,0,.37-.19.72.72,0,0,0,.16-.79A.76.76,0,0,0,9.6,2.2a.68.68,0,0,0-.4-.12h0a.71.71,0,0,0-.51.21A.74.74,0,0,0,8.48,2.8Zm-4.9,8.08a3.26,3.26,0,0,1-1.12-.2,1.88,1.88,0,0,1-.69-.45,1.88,1.88,0,0,1-.45-.69,3.26,3.26,0,0,1-.2-1.12c0-.63,0-.82,0-2.42s0-1.79,0-2.42a3.26,3.26,0,0,1,.2-1.12,1.88,1.88,0,0,1,.45-.69,1.88,1.88,0,0,1,.69-.45,3.26,3.26,0,0,1,1.12-.2c.63,0,.82,0,2.42,0s1.79,0,2.43,0a3.24,3.24,0,0,1,1.11.2,1.88,1.88,0,0,1,.69.45,1.88,1.88,0,0,1,.45.69,3.26,3.26,0,0,1,.2,1.12c0,.63,0,.82,0,2.42s0,1.79,0,2.42a3.26,3.26,0,0,1-.2,1.12,2,2,0,0,1-1.14,1.14,3.24,3.24,0,0,1-1.11.2c-.64,0-.83,0-2.43,0S4.21,10.91,3.58,10.88ZM3.53,0A4.39,4.39,0,0,0,2.07.32,2.81,2.81,0,0,0,1,1,2.81,2.81,0,0,0,.32,2.07,4.39,4.39,0,0,0,0,3.53C0,4.17,0,4.37,0,6S0,7.83,0,8.47A4.39,4.39,0,0,0,.32,9.93,2.81,2.81,0,0,0,1,11a3,3,0,0,0,1.06.7A4.69,4.69,0,0,0,3.53,12c.64,0,.84,0,2.47,0s1.83,0,2.47,0a4.69,4.69,0,0,0,1.46-.27,3.17,3.17,0,0,0,1.76-1.76A4.42,4.42,0,0,0,12,8.47c0-.64,0-.84,0-2.47s0-1.83,0-2.47a4.42,4.42,0,0,0-.27-1.46A3,3,0,0,0,11,1,2.81,2.81,0,0,0,9.93.32,4.15,4.15,0,0,0,8.47,0C7.83,0,7.63,0,6,0S4.17,0,3.53,0Z"/></svg>