<svg width="13" height="14" viewBox="0 0 13 14" xmlns="http://www.w3.org/2000/svg">
    <path fill-rule="evenodd" clip-rule="evenodd"
        d="M2.66057 0.410156L5.45451 3.43925L3.96256 5.05677L8.15473 9.60178L9.67037 7.95859L12.576 11.1088L12.4356 11.3617L12.0859 11.1674C12.4356 11.3617 12.4356 11.3615 12.4356 11.3617L12.4348 11.3631L12.4336 11.3652L12.4298 11.3719L12.417 11.3939C12.4062 11.4123 12.3907 11.4382 12.3707 11.4702C12.3307 11.5342 12.2724 11.6235 12.1968 11.7286C12.0463 11.938 11.8235 12.2156 11.5357 12.4838C10.9672 13.0136 10.0865 13.5576 8.98354 13.3583C8.43596 13.2593 7.58623 12.8352 6.67078 12.236C5.73799 11.6256 4.68487 10.7987 3.72204 9.84157C2.76081 8.88599 1.8767 7.78778 1.29682 6.63246C0.717139 5.47757 0.427037 4.23524 0.707775 3.01574L1.48738 3.19521C1.26228 4.17304 1.483 5.22004 2.01181 6.27359C2.5404 7.32672 3.36246 8.35605 4.28605 9.27421C5.20806 10.1908 6.21846 10.9839 7.10887 11.5666C8.01661 12.1607 8.74978 12.5031 9.12579 12.571C9.87004 12.7055 10.5049 12.3509 10.9903 11.8986C11.2293 11.6758 11.418 11.4414 11.5472 11.2617C11.5596 11.2445 11.5714 11.2278 11.5826 11.2117L9.67037 9.13853L8.15473 10.7817L2.87422 5.05677L4.36617 3.43925L2.66057 1.5901L2.1731 2.1186L1.58505 1.5762L2.66057 0.410156Z" />
</svg>