<svg width="30" height="30" viewBox="0 0 30 30" xmlns="http://www.w3.org/2000/svg">
    <path fill-rule="evenodd" clip-rule="evenodd"
        d="M18.8433 21.3544C19.778 21.7634 20.1285 20.9065 20.1285 20.9065L22.6016 8.48274C22.5821 7.64539 21.4527 8.15169 21.4527 8.15169L7.60732 13.5847C7.60732 13.5847 6.94523 13.8184 7.00365 14.2273C7.06207 14.6362 7.58784 14.831 7.58784 14.831L11.0735 15.9993C11.0735 15.9993 12.1251 19.4461 12.3393 20.1081C12.534 20.7508 12.7093 20.7702 12.7093 20.7702C12.904 20.8481 13.0792 20.7118 13.0792 20.7118L15.3381 18.6671L18.8433 21.3544ZM19.4474 10.6825C19.4474 10.6825 19.9342 10.3904 19.9148 10.6825C19.9148 10.6825 19.9927 10.7214 19.7395 10.9941C19.5058 11.2277 13.995 16.1739 13.255 16.836C13.1966 16.8749 13.1576 16.9333 13.1576 17.0112L12.9434 18.8417C12.9045 19.0364 12.6513 19.0559 12.5929 18.8806L11.6777 15.8818C11.6387 15.765 11.6777 15.6286 11.7945 15.5507L19.4474 10.6825Z" />
</svg>