<svg width="30" height="30" viewBox="0 0 30 30" xmlns="http://www.w3.org/2000/svg">
    <path
        d="M12.5839 14.875C12.5839 13.6094 13.6096 12.5831 14.8753 12.5831C16.1409 12.5831 17.1672 13.6094 17.1672 14.875C17.1672 16.1406 16.1409 17.1668 14.8753 17.1668C13.6096 17.1668 12.5839 16.1406 12.5839 14.875ZM11.3449 14.875C11.3449 16.8247 12.9254 18.4052 14.8753 18.4052C16.8251 18.4052 18.4056 16.8247 18.4056 14.875C18.4056 12.9252 16.8251 11.3448 14.8753 11.3448C12.9254 11.3448 11.3449 12.9252 11.3449 14.875ZM17.7204 11.2048C17.7203 11.368 17.7686 11.5275 17.8592 11.6632C17.9498 11.7989 18.0786 11.9047 18.2294 11.9672C18.3801 12.0297 18.546 12.0461 18.706 12.0143C18.8661 11.9826 19.0131 11.9041 19.1286 11.7887C19.244 11.6734 19.3226 11.5264 19.3545 11.3664C19.3864 11.2064 19.3701 11.0405 19.3078 10.8897C19.2454 10.7389 19.1397 10.6101 19.004 10.5193C18.8684 10.4286 18.7089 10.3802 18.5457 10.3801H18.5454C18.3267 10.3802 18.1169 10.4671 17.9622 10.6218C17.8076 10.7764 17.7206 10.9861 17.7204 11.2048V11.2048ZM12.0977 20.4711C11.4274 20.4406 11.063 20.3289 10.8209 20.2346C10.4999 20.1096 10.2709 19.9608 10.0301 19.7203C9.78928 19.4799 9.64022 19.2511 9.51581 18.9301C9.42142 18.6881 9.30977 18.3237 9.2793 17.6534C9.24596 16.9287 9.23931 16.711 9.23931 14.8751C9.23931 13.0391 9.24651 12.822 9.2793 12.0967C9.30982 11.4264 9.4223 11.0627 9.51581 10.82C9.64077 10.499 9.78961 10.27 10.0301 10.0292C10.2705 9.78844 10.4994 9.63939 10.8209 9.51498C11.0629 9.4206 11.4274 9.30894 12.0977 9.27847C12.8224 9.24514 13.0401 9.23849 14.8753 9.23849C16.7105 9.23849 16.9284 9.24569 17.6537 9.27847C18.324 9.309 18.6878 9.42148 18.9305 9.51498C19.2515 9.63939 19.4805 9.78877 19.7213 10.0292C19.9621 10.2697 20.1106 10.499 20.2356 10.82C20.33 11.062 20.4416 11.4264 20.4721 12.0967C20.5054 12.822 20.5121 13.0391 20.5121 14.8751C20.5121 16.711 20.5054 16.9281 20.4721 17.6534C20.4416 18.3237 20.3293 18.688 20.2356 18.9301C20.1106 19.2511 19.9618 19.4801 19.7213 19.7203C19.4808 19.9606 19.2515 20.1096 18.9305 20.2346C18.6885 20.329 18.324 20.4406 17.6537 20.4711C16.929 20.5044 16.7113 20.5111 14.8753 20.5111C13.0392 20.5111 12.8222 20.5044 12.0977 20.4711V20.4711ZM12.0407 8.04164C11.3088 8.07497 10.8087 8.19101 10.3719 8.36096C9.91958 8.53647 9.53665 8.77192 9.154 9.15395C8.77135 9.53598 8.53649 9.9195 8.36098 10.3718C8.19102 10.8088 8.07497 11.3087 8.04164 12.0406C8.00776 12.7736 8 13.008 8 14.875C8 16.742 8.00776 16.9764 8.04164 17.7094C8.07497 18.4414 8.19102 18.9411 8.36098 19.3782C8.53649 19.8302 8.77141 20.2142 9.154 20.596C9.5366 20.9779 9.91958 21.213 10.3719 21.389C10.8095 21.559 11.3088 21.675 12.0407 21.7084C12.7742 21.7417 13.0082 21.75 14.8753 21.75C16.7424 21.75 16.9767 21.7422 17.7098 21.7084C18.4418 21.675 18.9416 21.559 19.3786 21.389C19.8307 21.213 20.2139 20.9781 20.5965 20.596C20.9792 20.214 21.2136 19.8302 21.3896 19.3782C21.5595 18.9411 21.6761 18.4413 21.7089 17.7094C21.7422 16.9758 21.75 16.742 21.75 14.875C21.75 13.008 21.7422 12.7736 21.7089 12.0406C21.6756 11.3086 21.5595 10.8086 21.3896 10.3718C21.2136 9.91977 20.9786 9.53659 20.5965 9.15395C20.2145 8.77132 19.8307 8.53647 19.3792 8.36096C18.9416 8.19101 18.4417 8.07442 17.7104 8.04164C16.9773 8.00831 16.7429 8 14.8758 8C13.0087 8 12.7742 8.00776 12.0407 8.04164Z"
         />
</svg>