<svg width="30" height="30" viewBox="0 0 30 30" xmlns="http://www.w3.org/2000/svg">
    <path fill-rule="evenodd" clip-rule="evenodd"
        d="M20.7283 10.3059C21.34 10.4705 21.8223 10.9529 21.987 11.5646C22.2929 12.6821 22.2811 15.0113 22.2811 15.0113C22.2811 15.0113 22.2811 17.3288 21.987 18.4463C21.8223 19.058 21.34 19.5403 20.7283 19.705C19.6108 19.9991 15.1406 19.9991 15.1406 19.9991C15.1406 19.9991 10.6821 19.9991 9.55281 19.6933C8.94109 19.5286 8.45878 19.0463 8.29409 18.4346C8 17.3288 8 14.9996 8 14.9996C8 14.9996 8 12.6821 8.29409 11.5646C8.45878 10.9529 8.95286 10.4588 9.55281 10.2941C10.6704 10 15.1406 10 15.1406 10C15.1406 10 19.6108 10 20.7283 10.3059ZM17.4342 15.0002L13.7169 17.1412V12.8592L17.4342 15.0002Z"
        />
</svg>