<svg width="30" height="30" viewBox="0 0 30 30" xmlns="http://www.w3.org/2000/svg">
    <path fill-rule="evenodd" clip-rule="evenodd"
        d="M22.6329 10.6094C22.7442 10.2582 22.6329 10 22.1035 10H20.3531C19.908 10 19.703 10.223 19.5917 10.4689C19.5917 10.4689 18.7015 12.5239 17.4404 13.8587C17.0325 14.2452 16.847 14.368 16.6245 14.368C16.5132 14.368 16.3522 14.2452 16.3522 13.8939V10.6094C16.3522 10.1878 16.223 10 15.8521 10H13.1014C12.8234 10 12.6561 10.1956 12.6561 10.3811C12.6561 10.7808 13.2865 10.8729 13.3515 11.9969V14.4384C13.3515 14.9737 13.2495 15.0708 13.0269 15.0708C12.4335 15.0708 10.9902 13.0065 10.134 10.6446C9.96619 10.1854 9.7979 10 9.35055 10H7.60014C7.10002 10 7 10.223 7 10.4689C7 10.9081 7.59351 13.0861 9.76314 15.9665C11.2097 17.9335 13.2475 19 15.1019 19C16.2147 19 16.3522 18.7632 16.3522 18.3552V16.8684C16.3522 16.3947 16.4576 16.3002 16.8098 16.3002C17.0696 16.3002 17.5146 16.4232 18.5532 17.3716C19.74 18.4955 19.9355 19 20.6032 19H22.3536C22.8537 19 23.1038 18.7632 22.9595 18.2957C22.8017 17.8299 22.2351 17.1542 21.4831 16.3529C21.0752 15.8962 20.4631 15.4044 20.2778 15.1585C20.0182 14.8424 20.0923 14.7019 20.2778 14.421C20.2778 14.421 22.4103 11.5756 22.6329 10.6095V10.6094Z" />
</svg>