<svg width="184" height="53" viewBox="0 0 184 53" fill="none" xmlns="http://www.w3.org/2000/svg">
<path d="M86.1626 1.29511C86.1622 1.20867 86.1277 1.12588 86.0666 1.06476C86.0055 1.00364 85.9227 0.969133 85.8362 0.96875H41.8713C41.7848 0.969133 41.7021 1.00364 41.6409 1.06476C41.5798 1.12588 41.5453 1.20867 41.5449 1.29511V13.2188C41.5449 13.3054 41.5793 13.3884 41.6405 13.4496C41.7017 13.5108 41.7847 13.5452 41.8713 13.5452H56.7613C56.8471 13.5451 56.9295 13.5789 56.9906 13.6392C57.0516 13.6995 57.0865 13.7813 57.0877 13.8671V50.9567C57.0877 51.0433 57.1221 51.1263 57.1833 51.1875C57.2445 51.2487 57.3275 51.2831 57.414 51.2831H70.2862C70.3727 51.2831 70.4558 51.2487 70.517 51.1875C70.5782 51.1263 70.6125 51.0433 70.6125 50.9567V13.8671C70.6125 13.8243 70.621 13.7818 70.6374 13.7422C70.6538 13.7027 70.6778 13.6667 70.7081 13.6364C70.7384 13.6061 70.7744 13.582 70.814 13.5656C70.8536 13.5492 70.896 13.5408 70.9389 13.5408H85.8362C85.9228 13.5408 86.0058 13.5064 86.067 13.4452C86.1282 13.384 86.1626 13.301 86.1626 13.2144V1.29511Z" fill="#ED1B2F"/>
<path d="M46.3738 50.8737C46.3861 50.9217 46.3872 50.9719 46.377 51.0203C46.3668 51.0688 46.3456 51.1143 46.3151 51.1533C46.2845 51.1923 46.2454 51.2238 46.2008 51.2453C46.1562 51.2667 46.1072 51.2777 46.0577 51.2773H32.3434C32.2704 51.2771 32.1996 51.2524 32.1423 51.2073C32.085 51.1621 32.0445 51.099 32.0272 51.0281L19.9593 1.37234C19.947 1.32435 19.9459 1.27417 19.9561 1.2257C19.9663 1.17722 19.9875 1.13172 20.018 1.09273C20.0486 1.05373 20.0877 1.02227 20.1323 1.00078C20.177 0.979288 20.2259 0.968333 20.2755 0.968762H33.9927C34.0663 0.968247 34.138 0.992546 34.1961 1.03774C34.2543 1.08294 34.2955 1.1464 34.3132 1.2179L46.3738 50.8737Z" fill="#ED1B2F"/>
<path d="M6.27853 26.1289C6.20556 26.1291 6.13477 26.1537 6.07746 26.1989C6.02015 26.2441 5.97963 26.3071 5.96237 26.378L0.00926688 50.8723C-0.00243857 50.9203 -0.00306303 50.9704 0.00744071 51.0188C0.0179445 51.0671 0.0393015 51.1124 0.0698972 51.1513C0.100493 51.1902 0.139527 51.2216 0.184047 51.2432C0.228568 51.2648 0.27741 51.2759 0.326882 51.2758H14.047C14.1201 51.2755 14.1909 51.2508 14.2485 51.2057C14.306 51.1606 14.3468 51.0976 14.3646 51.0267L20.3177 26.5266C20.3289 26.4784 20.329 26.4282 20.3181 26.3799C20.3072 26.3316 20.2856 26.2863 20.2548 26.2475C20.224 26.2087 20.1848 26.1774 20.1402 26.1559C20.0956 26.1343 20.0467 26.1231 19.9972 26.123L6.27853 26.1289Z" fill="#ED1B2F"/>
<path d="M136.765 50.8737C136.753 50.9218 136.753 50.9718 136.763 51.0202C136.774 51.0685 136.795 51.1139 136.826 51.1527C136.856 51.1916 136.895 51.223 136.94 51.2446C136.984 51.2662 137.033 51.2773 137.083 51.2773H150.803C150.876 51.2769 150.947 51.2522 151.004 51.2071C151.062 51.162 151.103 51.099 151.12 51.0281L163.18 1.37233C163.191 1.3244 163.191 1.27453 163.181 1.22641C163.17 1.17829 163.149 1.13317 163.119 1.09439C163.088 1.05562 163.05 1.02418 163.005 1.00243C162.961 0.98068 162.913 0.969167 162.863 0.96875H149.142C149.069 0.968958 148.998 0.993612 148.941 1.03877C148.884 1.08393 148.843 1.147 148.826 1.21789L136.765 50.8737Z" fill="#ED1B2F"/>
<path d="M176.866 26.1309C176.939 26.1312 177.01 26.1559 177.067 26.2011C177.125 26.2462 177.166 26.3091 177.184 26.38L183.132 50.8743C183.145 50.9223 183.146 50.9724 183.135 51.0209C183.125 51.0694 183.104 51.1149 183.074 51.1539C183.043 51.1929 183.004 51.2243 182.959 51.2458C182.915 51.2673 182.866 51.2783 182.816 51.2778H169.102C169.029 51.2776 168.958 51.253 168.901 51.2078C168.843 51.1627 168.803 51.0996 168.786 51.0287L162.831 26.5344C162.82 26.4864 162.819 26.4364 162.83 26.3882C162.841 26.3399 162.862 26.2947 162.892 26.2559C162.923 26.2171 162.962 26.1857 163.006 26.1641C163.051 26.1424 163.099 26.1311 163.149 26.1309H176.866Z" fill="#ED1B2F"/>
<path d="M111.959 52.2463C118.003 52.2445 123.86 50.147 128.53 46.311C133.201 42.4751 136.398 37.1381 137.574 31.2096C138.751 25.2812 137.836 19.128 134.985 13.7988C132.133 8.46956 127.522 4.294 121.937 1.9837C116.351 -0.326613 110.138 -0.628709 104.355 1.12889C98.5719 2.88648 93.5773 6.59501 90.2223 11.6225C86.8673 16.65 85.3594 22.6853 85.9556 28.7C86.5518 34.7147 89.2152 40.3365 93.492 44.6075C98.3923 49.5 105.034 52.2475 111.959 52.2463ZM111.959 11.5973C115.565 11.598 119.042 12.9398 121.713 15.3619C124.385 17.7839 126.06 21.113 126.414 24.7017C126.767 28.2905 125.773 31.8823 123.624 34.7787C121.476 37.6751 118.328 39.669 114.791 40.3726C111.254 41.0763 107.582 40.4393 104.489 38.5857C101.396 36.7321 99.1023 33.7944 98.055 30.3437C97.0077 26.8931 97.2812 23.1763 98.8224 19.9161C100.363 16.6559 103.062 14.0855 106.393 12.7046C108.158 11.9738 110.049 11.5986 111.959 11.6002V11.5973Z" fill="#ED1B2F"/>
</svg>
