<svg width="88" height="88" viewBox="0 0 88 88" fill="none" xmlns="http://www.w3.org/2000/svg">
<path fill-rule="evenodd" clip-rule="evenodd" d="M36.6888 24.8C36.6888 24.082 37.2708 23.5 37.9888 23.5H52.9017C53.6197 23.5 54.2017 24.082 54.2017 24.8V43.807H56.2301C58.2269 43.807 60.1814 45.2308 60.1346 47.3901C60.1226 47.9452 60.0563 48.5246 59.8626 48.9822C59.8112 49.1037 59.7477 49.2238 59.6689 49.3354C59.8255 49.4911 59.9529 49.6755 60.0525 49.8678C60.3191 50.3824 60.4379 51.0324 60.4379 51.6522C60.4379 52.272 60.3191 52.9219 60.0525 53.4365C59.9765 53.5833 59.8842 53.7256 59.7751 53.854C59.7943 53.8722 59.8131 53.8909 59.8314 53.9102C60.1206 54.2129 60.2834 54.6086 60.3762 55.002C60.5608 55.7837 60.5079 56.7285 60.4174 57.4618C60.3033 58.3856 59.6057 59.039 58.7691 59.2271V60C58.7691 62.4853 56.7544 64.5 54.2691 64.5H40.3508V63.5H48.9945C48.9606 63.4511 48.9281 63.4017 48.8972 63.3523C48.5136 62.7398 48.2454 61.9422 48.1961 61.1619C48.1472 60.3873 48.3118 59.5488 48.899 58.9533C49.1568 58.6919 49.4753 58.4977 49.8528 58.3761C49.8515 58.3743 49.8503 58.3725 49.849 58.3708C49.475 57.8462 49.2984 57.1715 49.2911 56.5123C49.2826 55.7434 49.5161 54.8822 50.0468 54.2628C49.6178 54.1748 49.157 54.0448 48.7157 53.8534C47.8986 53.4989 47.0997 52.9066 46.7338 51.9559C45.8634 52.6552 44.2641 53.2142 41.7182 53.0203L41.7942 52.0232C45.182 52.2812 46.3145 51.1189 46.5263 50.6856V46.9565H47.5263V50.7826C47.5263 51.8991 48.2052 52.5419 49.1137 52.936C49.8254 53.2447 50.6224 53.3694 51.1805 53.4162C50.5617 51.7852 50.5836 50.1487 50.6628 48.6922C50.674 48.4865 50.6862 48.2859 50.6982 48.0896C50.7358 47.4731 50.7707 46.9006 50.7619 46.3547C50.7505 45.6418 50.6635 45.0304 50.4335 44.5087C50.2559 44.1059 50.0551 43.7967 49.8372 43.5817C49.6754 43.422 49.5065 43.3164 49.3289 43.2579C48.1824 42.8795 46.9069 42.9514 45.7509 43.2181C44.6042 43.4826 43.6208 43.9283 43.0755 44.2505L35.9321 48.9652V61.1848C35.9411 61.2576 35.9478 61.3409 35.9551 61.4324C35.9804 61.7494 36.0136 62.1656 36.1799 62.5909C36.284 62.857 36.4278 63.0794 36.624 63.235C36.8131 63.3849 37.0846 63.5 37.5 63.5V64.5C36.8815 64.5 36.3854 64.322 36.0027 64.0186C35.6272 63.7208 35.3951 63.3297 35.2486 62.955C35.0811 62.5267 35.0086 62.0527 34.9737 61.7178H27.8C27.082 61.7178 26.5 61.1358 26.5 60.4178V49.4961C26.5 48.7781 27.082 48.1961 27.8 48.1961H35.282L42.5447 43.4027L42.5549 43.3966C43.1828 43.0236 44.2673 42.5341 45.5261 42.2437C46.7826 41.9538 48.2593 41.8518 49.6423 42.3082C49.6577 42.3133 49.6731 42.3186 49.6883 42.324V35.9783H40.8508V37.8087C40.8508 38.5267 40.2688 39.1087 39.5508 39.1087H30.443C29.461 39.1087 28.8336 38.0616 29.2967 37.1957L31.6021 32.8845C31.6545 32.7866 31.6484 32.6676 31.5864 32.5755L29.1816 29.0044C28.6001 28.1409 29.2188 26.9783 30.2599 26.9783H36.6888V24.8ZM36.6888 27.9783H30.2599C30.0196 27.9783 29.8769 28.2466 30.011 28.4458L32.4158 32.0169C32.6847 32.4163 32.7109 32.9315 32.4839 33.3561L30.1785 37.6672C30.0716 37.8671 30.2164 38.1087 30.443 38.1087H39.5508C39.7165 38.1087 39.8508 37.9744 39.8508 37.8087V35.9783H37.9888C37.2708 35.9783 36.6888 35.3962 36.6888 34.6783V27.9783ZM49.6883 34.9783V24.5H37.9888C37.8231 24.5 37.6888 24.6343 37.6888 24.8V34.6783C37.6888 34.8439 37.8231 34.9783 37.9888 34.9783H49.6883ZM50.6883 24.5V43.0282C50.8871 43.2558 51.0582 43.5196 51.2063 43.807H53.2017V24.8C53.2017 24.6343 53.0674 24.5 52.9017 24.5H50.6883ZM51.5857 44.807C51.7082 45.3015 51.7534 45.8179 51.7618 46.3387C51.7712 46.9268 51.733 47.553 51.6948 48.1786C51.6832 48.3683 51.6716 48.558 51.6614 48.7465C51.6587 48.7948 51.6562 48.843 51.6537 48.8913H58.6204C58.6961 48.8913 58.7404 48.8711 58.7784 48.8401C58.8249 48.8022 58.8841 48.7283 58.9417 48.5923C59.0605 48.3118 59.1237 47.8852 59.1349 47.3685C59.1661 45.9259 57.836 44.807 56.2301 44.807H51.5857ZM58.6204 49.8913H51.6231C51.6174 51.0739 51.7436 52.2583 52.2606 53.413H58.6204C58.8029 53.413 58.9932 53.3075 59.1646 52.9765C59.3372 52.6433 59.4379 52.1628 59.4379 51.6522C59.4379 51.1415 59.3372 50.661 59.1646 50.3278C58.9932 49.9969 58.8029 49.8913 58.6204 49.8913ZM58.6204 54.413H51.945C51.8478 54.413 51.7568 54.4204 51.6717 54.4338C50.799 54.5718 50.2795 55.4571 50.291 56.5013C50.2966 57.0043 50.4331 57.4675 50.6633 57.7903C50.8232 58.0146 51.027 58.1728 51.2826 58.2426C51.3958 58.252 51.5118 58.2653 51.6307 58.2826H58.2691C58.8774 58.2826 59.3587 57.8753 59.4249 57.3392C59.5121 56.6329 59.5451 55.8339 59.403 55.2318C59.3325 54.9332 59.2289 54.7271 59.1083 54.6009C59.0019 54.4895 58.8581 54.413 58.6204 54.413ZM51.1244 59.2333C50.3268 59.1814 49.8705 59.3923 49.6111 59.6554C49.298 59.9729 49.1552 60.4822 49.1941 61.0989C49.2327 61.7099 49.4476 62.3472 49.7447 62.8216C50.0637 63.331 50.3727 63.5 50.5397 63.5H54.2691C56.2021 63.5 57.7691 61.933 57.7691 60V59.2826H51.5937C51.429 59.2826 51.2725 59.2655 51.1244 59.2333ZM34.9321 49.1961H27.8C27.6343 49.1961 27.5 49.3304 27.5 49.4961V60.4178C27.5 60.5835 27.6343 60.7178 27.8 60.7178H34.9321V49.1961Z" fill="white"/>
</svg>
