<svg width="339" height="372" viewBox="0 0 339 372" fill="none" xmlns="http://www.w3.org/2000/svg">
<path d="M0 0H339V625H0V0Z" fill="black"/>
<mask id="mask0_163_911" style="mask-type:alpha" maskUnits="userSpaceOnUse" x="0" y="0" width="339" height="625">
<path d="M0 0H339V625H0V0Z" fill="black"/>
</mask>
<g mask="url(#mask0_163_911)">
<path d="M406.905 418.246C407.021 418.692 407.031 419.159 406.935 419.61C406.84 420.061 406.641 420.484 406.354 420.847C406.068 421.209 405.701 421.502 405.282 421.702C404.863 421.902 404.404 422.004 403.939 422H275.277C274.593 421.998 273.929 421.769 273.391 421.349C272.853 420.928 272.473 420.342 272.311 419.682L159.095 -42.2456C158.979 -42.692 158.969 -43.1588 159.065 -43.6097C159.16 -44.0607 159.359 -44.4839 159.646 -44.8467C159.932 -45.2094 160.299 -45.5021 160.718 -45.702C161.137 -45.902 161.596 -46.0039 162.061 -45.9999H290.75C291.441 -46.0047 292.113 -45.7786 292.659 -45.3582C293.204 -44.9377 293.591 -44.3474 293.757 -43.6823L406.905 418.246Z" fill="white" fill-opacity="0.11"/>
<path d="M33.3799 188.054C32.7015 188.056 32.0432 188.285 31.5103 188.706C30.9775 189.126 30.6007 189.712 30.4402 190.372L-24.9138 418.245C-25.0227 418.693 -25.0285 419.159 -24.9308 419.608C-24.8331 420.058 -24.6346 420.48 -24.3501 420.842C-24.0656 421.203 -23.7026 421.495 -23.2887 421.696C-22.8747 421.897 -22.4205 422.001 -21.9605 422H105.614C106.293 421.996 106.952 421.767 107.487 421.347C108.022 420.927 108.402 420.342 108.567 419.682L163.921 191.755C164.025 191.306 164.026 190.839 163.925 190.389C163.824 189.94 163.622 189.519 163.336 189.158C163.049 188.797 162.685 188.506 162.27 188.305C161.856 188.105 161.401 188 160.941 188L33.3799 188.054Z" fill="white" fill-opacity="0.11"/>
</g>
</svg>
