<svg width="1078" height="960" viewBox="0 0 1078 960" fill="none" xmlns="http://www.w3.org/2000/svg">
<path d="M1077.76 1178.47C1078.05 1179.6 1078.08 1180.79 1077.84 1181.93C1077.59 1183.08 1077.09 1184.15 1076.36 1185.07C1075.64 1185.99 1074.71 1186.74 1073.64 1187.24C1072.58 1187.75 1071.42 1188.01 1070.24 1188H743.913C742.177 1187.99 740.492 1187.41 739.129 1186.35C737.765 1185.28 736.801 1183.79 736.39 1182.12L449.24 9.53043C448.948 8.39712 448.922 7.21238 449.164 6.06758C449.407 4.92279 449.911 3.84853 450.638 2.92766C451.365 2.0068 452.295 1.26395 453.357 0.756394C454.419 0.248841 455.584 -0.00984666 456.763 0.000286617H783.156C784.909 -0.0118855 786.614 0.561934 787.998 1.62925C789.382 2.69656 790.363 4.19517 790.783 5.88352L1077.76 1178.47Z" fill="white" fill-opacity="0.08"/>
<path d="M129.958 594.138C128.238 594.143 126.57 594.725 125.219 595.791C123.869 596.858 122.914 598.347 122.507 600.021L-17.7816 1178.47C-18.0575 1179.6 -18.0722 1180.79 -17.8247 1181.93C-17.5771 1183.07 -17.0738 1184.14 -16.3528 1185.06C-15.6318 1185.98 -14.712 1186.72 -13.6628 1187.23C-12.6136 1187.74 -11.4626 1188 -10.2968 1188H313.026C314.749 1187.99 316.419 1187.41 317.774 1186.34C319.129 1185.28 320.092 1183.79 320.511 1182.12L460.8 603.531C461.063 602.391 461.067 601.207 460.81 600.065C460.553 598.924 460.043 597.856 459.317 596.94C458.591 596.024 457.668 595.284 456.617 594.775C455.566 594.266 454.414 594.001 453.246 594L129.958 594.138Z" fill="white" fill-opacity="0.08"/>
</svg>
