<svg width="100" height="29" viewBox="0 0 100 29" fill="none" xmlns="http://www.w3.org/2000/svg">
<path d="M46.5829 1.41765C46.5827 1.37092 46.564 1.32616 46.531 1.29312C46.4979 1.26007 46.4532 1.24142 46.4065 1.24121H22.6374C22.5906 1.24142 22.5459 1.26007 22.5128 1.29312C22.4798 1.32616 22.4611 1.37092 22.4609 1.41765V7.86404C22.4609 7.91083 22.4795 7.95571 22.5126 7.9888C22.5457 8.02189 22.5906 8.04048 22.6374 8.04048H30.6875C30.7339 8.04047 30.7784 8.05874 30.8114 8.09132C30.8444 8.1239 30.8633 8.16817 30.8639 8.21456V28.2666C30.8639 28.3134 30.8825 28.3582 30.9156 28.3913C30.9487 28.4244 30.9936 28.443 31.0404 28.443H37.9995C38.0463 28.443 38.0912 28.4244 38.1243 28.3913C38.1574 28.3582 38.176 28.3134 38.176 28.2666V8.21456C38.176 8.19139 38.1805 8.16844 38.1894 8.14704C38.1983 8.12563 38.2113 8.10618 38.2277 8.08979C38.244 8.07341 38.2635 8.06041 38.2849 8.05155C38.3063 8.04268 38.3292 8.03812 38.3524 8.03812H46.4065C46.4532 8.03812 46.4981 8.01953 46.5312 7.98644C46.5643 7.95335 46.5829 7.90847 46.5829 7.86167V1.41765Z" fill="white"/>
<path d="M25.0713 28.2217C25.0779 28.2476 25.0785 28.2747 25.073 28.301C25.0675 28.3272 25.056 28.3518 25.0395 28.3728C25.023 28.3939 25.0019 28.4109 24.9777 28.4226C24.9536 28.4342 24.9271 28.4401 24.9003 28.4399H17.4859C17.4465 28.4397 17.4082 28.4264 17.3772 28.402C17.3462 28.3776 17.3243 28.3435 17.315 28.3052L10.7906 1.45941C10.784 1.43346 10.7834 1.40633 10.7889 1.38013C10.7944 1.35392 10.8059 1.32932 10.8224 1.30824C10.8389 1.28716 10.86 1.27015 10.8842 1.25853C10.9083 1.24691 10.9348 1.24099 10.9615 1.24122H18.3776C18.4174 1.24094 18.4561 1.25408 18.4876 1.27851C18.519 1.30295 18.5413 1.33726 18.5508 1.37591L25.0713 28.2217Z" fill="white"/>
<path d="M3.3944 14.844C3.35496 14.8441 3.31668 14.8574 3.2857 14.8818C3.25472 14.9062 3.23281 14.9403 3.22348 14.9787L0.00501002 28.2212C-0.00131838 28.2472 -0.00165599 28.2742 0.00402273 28.3004C0.00970144 28.3265 0.0212478 28.351 0.037789 28.372C0.0543302 28.3931 0.0754333 28.41 0.0995028 28.4217C0.123572 28.4334 0.149978 28.4394 0.176725 28.4394H7.59432C7.63383 28.4391 7.67215 28.4258 7.70324 28.4014C7.73433 28.377 7.75642 28.343 7.76604 28.3047L10.9845 15.059C10.9905 15.0329 10.9906 15.0058 10.9847 14.9797C10.9788 14.9536 10.9671 14.9291 10.9505 14.9081C10.9338 14.8872 10.9126 14.8702 10.8885 14.8586C10.8644 14.8469 10.838 14.8408 10.8112 14.8408L3.3944 14.844Z" fill="white"/>
<path d="M73.9406 28.2217C73.9342 28.2477 73.9339 28.2747 73.9396 28.3009C73.9452 28.327 73.9568 28.3515 73.9733 28.3725C73.9899 28.3936 74.011 28.4105 74.0351 28.4222C74.0591 28.4339 74.0855 28.4399 74.1123 28.4399H81.5299C81.5694 28.4396 81.6077 28.4263 81.6388 28.4019C81.6699 28.3775 81.692 28.3435 81.7016 28.3052L88.2212 1.4594C88.2274 1.43349 88.2276 1.40653 88.2219 1.38051C88.2162 1.3545 88.2047 1.3301 88.1883 1.30914C88.1719 1.28817 88.151 1.27118 88.1271 1.25942C88.1032 1.24766 88.0769 1.24144 88.0503 1.24121H80.6319C80.5925 1.24132 80.5542 1.25465 80.5232 1.27907C80.4922 1.30348 80.4703 1.33758 80.461 1.3759L73.9406 28.2217Z" fill="white"/>
<path d="M95.6199 14.8447C95.6594 14.8449 95.6977 14.8583 95.7288 14.8827C95.7599 14.9071 95.782 14.9411 95.7916 14.9794L99.0077 28.2219C99.0143 28.2479 99.0149 28.275 99.0094 28.3012C99.0039 28.3274 98.9925 28.352 98.9759 28.3731C98.9594 28.3942 98.9383 28.4112 98.9142 28.4228C98.89 28.4344 98.8636 28.4403 98.8368 28.4401H91.4223C91.3829 28.44 91.3446 28.4267 91.3136 28.4023C91.2826 28.3778 91.2607 28.3437 91.2514 28.3054L88.0321 15.0629C88.026 15.0369 88.0258 15.0099 88.0315 14.9838C88.0372 14.9578 88.0488 14.9333 88.0653 14.9123C88.0818 14.8914 88.1028 14.8744 88.1268 14.8627C88.1508 14.851 88.1772 14.8448 88.2039 14.8447H95.6199Z" fill="white"/>
<path d="M60.5296 28.964C63.7973 28.9631 66.9635 27.8291 69.4888 25.7552C72.0141 23.6814 73.7421 20.796 74.3783 17.5909C75.0146 14.3857 74.5197 11.0591 72.9781 8.17791C71.4365 5.29673 68.9435 3.03927 65.9239 1.79023C62.9043 0.541195 59.5451 0.37787 56.4186 1.32809C53.2921 2.27831 50.5919 4.28328 48.778 7.00132C46.9641 9.71936 46.1489 12.9823 46.4712 16.234C46.7936 19.4858 48.2335 22.5252 50.5457 24.8342C53.195 27.4793 56.7859 28.9647 60.5296 28.964ZM60.5296 6.98772C62.4791 6.98808 64.3589 7.71352 65.8033 9.02297C67.2476 10.3324 68.1534 12.1322 68.3443 14.0724C68.5353 16.0126 67.9978 17.9545 66.8364 19.5204C65.675 21.0863 63.9727 22.1643 62.0606 22.5447C60.1485 22.9251 58.1633 22.5808 56.491 21.5787C54.8187 20.5765 53.5789 18.9883 53.0127 17.1227C52.4465 15.2572 52.5943 13.2477 53.4275 11.4852C54.2607 9.72259 55.7196 8.3329 57.5206 7.58636C58.4745 7.19128 59.4971 6.98838 60.5296 6.9893V6.98772Z" fill="white"/>
</svg>
