<svg width="375" height="610" viewBox="0 0 375 610" fill="none" xmlns="http://www.w3.org/2000/svg">
<g clip-path="url(#clip0_163_913)">
<rect width="375" height="610" fill="#28282A"/>
<rect width="375" height="610" fill="black"/>
<path d="M588.858 653.352C589.031 654.024 589.046 654.726 588.903 655.404C588.759 656.083 588.46 656.719 588.029 657.265C587.598 657.811 587.046 658.251 586.416 658.552C585.787 658.852 585.096 659.006 584.397 659H390.885C389.855 658.997 388.856 658.652 388.048 658.02C387.239 657.388 386.667 656.505 386.424 655.513L216.142 -39.3523C215.969 -40.0239 215.954 -40.726 216.097 -41.4044C216.241 -42.0828 216.54 -42.7194 216.971 -43.2651C217.402 -43.8108 217.954 -44.251 218.584 -44.5518C219.213 -44.8525 219.904 -45.0058 220.603 -44.9998H414.156C415.196 -45.007 416.207 -44.667 417.027 -44.0345C417.848 -43.402 418.43 -42.514 418.679 -41.5135L588.858 653.352Z" fill="white" fill-opacity="0.08"/>
<path d="M26.7243 307.082C25.7048 307.084 24.7158 307.429 23.915 308.061C23.1143 308.693 22.5481 309.576 22.3069 310.568L-60.8705 653.352C-61.0341 654.025 -61.0428 654.726 -60.896 655.403C-60.7493 656.079 -60.4509 656.713 -60.0234 657.257C-59.5959 657.801 -59.0505 658.241 -58.4285 658.543C-57.8064 658.845 -57.124 659.001 -56.4328 659H135.266C136.287 658.995 137.278 658.649 138.081 658.018C138.884 657.387 139.455 656.505 139.704 655.513L222.881 312.648C223.038 311.972 223.04 311.271 222.887 310.594C222.735 309.918 222.432 309.285 222.002 308.742C221.572 308.199 221.024 307.761 220.401 307.459C219.778 307.157 219.095 307.001 218.403 307L26.7243 307.082Z" fill="white" fill-opacity="0.08"/>
</g>
<defs>
<clipPath id="clip0_163_913">
<rect width="375" height="610" fill="white"/>
</clipPath>
</defs>
</svg>
