<svg id="Layer_1" data-name="Layer 1" xmlns="http://www.w3.org/2000/svg" viewBox="0 0 62 62"><defs><style>.cls-1{fill:#fff;}</style></defs><path class="cls-1" d="M31,62A31,31,0,1,1,62,31,31,31,0,0,1,31,62ZM31,1A30,30,0,1,0,61,31,30,30,0,0,0,31,1Z"/><path class="cls-1" d="M41.22,40.43H20.78a2.5,2.5,0,0,1-2.5-2.5V35.7h1v2.23a1.5,1.5,0,0,0,1.5,1.5H41.22a1.5,1.5,0,0,0,1.5-1.5V25a1.5,1.5,0,0,0-1.5-1.5H20.78a1.5,1.5,0,0,0-1.5,1.5v6.46h-1V25a2.5,2.5,0,0,1,2.5-2.5H41.22a2.5,2.5,0,0,1,2.5,2.5V37.93A2.5,2.5,0,0,1,41.22,40.43Z"/><path class="cls-1" d="M23.4,30.84H21.72a1,1,0,0,1-1-1V28.49a1,1,0,0,1,1-1H23.4a1,1,0,0,1,1,1v1.35A1,1,0,0,1,23.4,30.84Zm-1.68-2.35v1.35H23.4V28.49Z"/><circle class="cls-1" cx="36.84" cy="30.84" r="1.08"/><path class="cls-1" d="M38.7,29.19a2.38,2.38,0,0,0-1.84-.9,2.79,2.79,0,0,0-1.92.89l-.74-.68a3.85,3.85,0,0,1,2.65-1.21h0a3.48,3.48,0,0,1,2.55,1.21Zm1.65-1.6a5.15,5.15,0,0,0-4-1.49,5,5,0,0,0-3,1.38l-.3-.23-.61-.15a4.71,4.71,0,0,1,2.64-1.76A5.82,5.82,0,0,1,41,26.85Z"/><rect class="cls-1" x="20.51" y="33.22" width="0.87" height="0.76"/><rect class="cls-1" x="21.59" y="33.22" width="0.87" height="0.76"/><rect class="cls-1" x="22.78" y="33.22" width="0.87" height="0.76"/><rect class="cls-1" x="23.86" y="33.22" width="0.87" height="0.76"/><rect class="cls-1" x="20.51" y="33.22" width="0.87" height="0.76"/><rect class="cls-1" x="21.59" y="33.22" width="0.87" height="0.76"/><rect class="cls-1" x="22.78" y="33.22" width="0.87" height="0.76"/><rect class="cls-1" x="23.86" y="33.22" width="0.87" height="0.76"/><rect class="cls-1" x="20.51" y="37.01" width="0.87" height="0.76"/><rect class="cls-1" x="22.02" y="37.01" width="0.87" height="0.76"/><rect class="cls-1" x="23.54" y="37.01" width="0.87" height="0.76"/><rect class="cls-1" x="25.05" y="37.01" width="0.87" height="0.76"/><rect class="cls-1" x="26.46" y="37.01" width="0.87" height="0.76"/><rect class="cls-1" x="27.97" y="37.01" width="0.87" height="0.76"/><rect class="cls-1" x="29.38" y="37.01" width="0.87" height="0.76"/><rect class="cls-1" x="33.6" y="37.01" width="0.87" height="0.76"/><rect class="cls-1" x="35.22" y="37.01" width="0.87" height="0.76"/><rect class="cls-1" x="26.13" y="33.22" width="0.87" height="0.76"/><rect class="cls-1" x="27.21" y="33.22" width="0.87" height="0.76"/><rect class="cls-1" x="28.4" y="33.22" width="0.87" height="0.76"/><rect class="cls-1" x="29.49" y="33.22" width="0.87" height="0.76"/><rect class="cls-1" x="31.65" y="33.22" width="0.87" height="0.76"/><rect class="cls-1" x="32.73" y="33.22" width="0.87" height="0.76"/><rect class="cls-1" x="33.92" y="33.22" width="0.87" height="0.76"/><rect class="cls-1" x="35" y="33.22" width="0.87" height="0.76"/><rect class="cls-1" x="37.28" y="33.22" width="0.87" height="0.76"/><rect class="cls-1" x="38.36" y="33.22" width="0.87" height="0.76"/><rect class="cls-1" x="39.55" y="33.22" width="0.87" height="0.76"/><rect class="cls-1" x="40.63" y="33.22" width="0.87" height="0.76"/></svg>