<svg id="Layer_1" data-name="Layer 1" xmlns="http://www.w3.org/2000/svg" viewBox="0 0 62 62"><defs><style>.cls-1{fill:#fff;}</style></defs><path class="cls-1" d="M31,62A31,31,0,1,1,62,31,31,31,0,0,1,31,62ZM31,1A30,30,0,1,0,61,31,30,30,0,0,0,31,1Z"/><path class="cls-1" d="M45.64,41h-1V39.08h-.93v-1h1.43v0a1.34,1.34,0,0,0,1-.37,1.31,1.31,0,0,0,.31-1V34.34H19.7v2.37a1.41,1.41,0,0,0,.23,1,2,2,0,0,0,1.39.35H40.84v1h-19V41h-1V39.06a2.48,2.48,0,0,1-1.6-.62,2.2,2.2,0,0,1-.52-1.67V33.34H24V25.9H20a1.5,1.5,0,0,1-1.5-1.5V22A1.5,1.5,0,0,1,20,20.5h8.9A1.5,1.5,0,0,1,30.4,22v2.4a1.5,1.5,0,0,1-1.5,1.5H25v7.44H47.49v3.37a2.24,2.24,0,0,1-.56,1.67,2.11,2.11,0,0,1-1.29.66ZM20,21.5a.5.5,0,0,0-.5.5v2.4a.5.5,0,0,0,.5.5h8.9a.5.5,0,0,0,.5-.5V22a.5.5,0,0,0-.5-.5Z"/></svg>