<svg id="Layer_1" data-name="Layer 1" xmlns="http://www.w3.org/2000/svg" viewBox="0 0 62 62"><defs><style>.cls-1{fill:#fff;}</style></defs><path class="cls-1" d="M31,62A31,31,0,1,1,62,31,31,31,0,0,1,31,62ZM31,1A30,30,0,1,0,61,31,30,30,0,0,0,31,1Z"/><path class="cls-1" d="M41.52,44h-1V42.26H21.06V44h-1V42.26H18.8A1.3,1.3,0,0,1,17.5,41V31.8a1.3,1.3,0,0,1,1.3-1.3h3.46v1H18.8a.29.29,0,0,0-.3.3V41a.3.3,0,0,0,.3.3H43.2a.3.3,0,0,0,.3-.3V31.8a.29.29,0,0,0-.3-.3h-18v-1h18a1.3,1.3,0,0,1,1.3,1.3V41a1.3,1.3,0,0,1-1.3,1.3H41.52Z"/><rect class="cls-1" x="29" y="34" width="4" height="4" rx="0.5"/><path class="cls-1" d="M28,26.64V25.43h1.08V24.29H28V23.07h1.08V18H32.5a3.56,3.56,0,0,1,2.56.89,3.17,3.17,0,0,1,0,4.51,3.56,3.56,0,0,1-2.56.89H30.29v1.14h3.36v1.21H30.29V28H29.08V26.64Zm2.29-3.57H32.5a2.5,2.5,0,0,0,1.71-.51,1.83,1.83,0,0,0,.58-1.42,1.78,1.78,0,0,0-.58-1.4,2.45,2.45,0,0,0-1.71-.53H30.29Z"/></svg>