<svg id="Layer_1" data-name="Layer 1" xmlns="http://www.w3.org/2000/svg" viewBox="0 0 62 62"><defs><style>.cls-1{fill:#fff;}</style></defs><path class="cls-1" d="M31,62A31,31,0,1,1,62,31,31,31,0,0,1,31,62ZM31,1A30,30,0,1,0,61,31,30,30,0,0,0,31,1Z"/><path class="cls-1" d="M15.06,35.76V34.05l3-1.88A7,7,0,0,0,19.48,31a1.62,1.62,0,0,0,.42-1.09,1.16,1.16,0,0,0-.37-.89,1.46,1.46,0,0,0-1-.33,1.5,1.5,0,0,0-1.29.61,1.94,1.94,0,0,0-.26.61H15a3.69,3.69,0,0,1,.55-1.46,3.31,3.31,0,0,1,3-1.46,3.55,3.55,0,0,1,2.45.83,2.56,2.56,0,0,1,.94,2,2.91,2.91,0,0,1-.28,1.32,3.2,3.2,0,0,1-.76,1,12.91,12.91,0,0,1-1.37,1l-1,.63-.62.24v.06l.81-.06h3.2v1.71Z"/><path class="cls-1" d="M22.91,33.26h1.95a1.08,1.08,0,0,0,.3.53,1.81,1.81,0,0,0,1.39.51,1.73,1.73,0,0,0,1.16-.36,1.19,1.19,0,0,0,.41-.92,1.23,1.23,0,0,0-.41-1,1.68,1.68,0,0,0-1.16-.37,2.08,2.08,0,0,0-1.09.28,1.3,1.3,0,0,0-.29.27h-2l.38-5h5.78V29H25.23l-.12,1.7h.06a2.07,2.07,0,0,1,.43-.31,2.92,2.92,0,0,1,1.33-.3,3.14,3.14,0,0,1,2.27.88,2.81,2.81,0,0,1-.06,4.23,3.81,3.81,0,0,1-2.59.85,3.54,3.54,0,0,1-3.05-1.36A3.61,3.61,0,0,1,22.91,33.26Z"/><path class="cls-1" d="M32.23,34.75A4.48,4.48,0,0,1,31,31.5a4.44,4.44,0,0,1,1.23-3.24,4.3,4.3,0,0,1,6.08,0,4.44,4.44,0,0,1,1.23,3.24,4.48,4.48,0,0,1-1.23,3.25,4.32,4.32,0,0,1-6.08,0Zm1.4-5.33A3.08,3.08,0,0,0,33,31.5a3.12,3.12,0,0,0,.62,2.09,2.24,2.24,0,0,0,3.27,0,3.07,3.07,0,0,0,.63-2.09,3,3,0,0,0-.63-2.08,2.22,2.22,0,0,0-3.27,0Z"/><polygon class="cls-1" points="40.73 32.9 40.73 31.44 42.61 31.44 42.61 29.55 44.12 29.55 44.12 31.44 46 31.44 46 32.9 44.12 32.9 44.12 34.78 42.61 34.78 42.61 32.9 40.73 32.9"/></svg>