<svg width="48" height="48" viewBox="0 0 48 48" fill="none" xmlns="http://www.w3.org/2000/svg">
<circle cx="24" cy="24" r="23.5" stroke="#C1C1C1"/>
<mask id="mask0_160_809" style="mask-type:alpha" maskUnits="userSpaceOnUse" x="0" y="0" width="48" height="48">
<circle cx="24" cy="24" r="24" fill="#C1C1C1"/>
</mask>
<g mask="url(#mask0_160_809)">
<path d="M19.1701 26.7998C17.5998 25.9998 16.7998 24.1734 16.7998 22.7428C16.7998 19.9028 19.102 17.6006 21.942 17.6006C24.7819 17.6006 27.0842 19.9028 27.0842 22.7428C27.0842 24.5379 25.5701 26.5615 23.9701 26.7998" stroke="#C1C1C1" stroke-width="2"/>
<path d="M16.1793 14.3994C13.6556 16.0583 12 18.8434 12 21.9994C12 25.1554 13.6556 27.9405 16.1793 29.5994M27.0207 29.5994C29.5444 27.9405 31.2 25.1554 31.2 21.9994C31.2 18.8434 29.5444 16.0583 27.0207 14.3994" stroke="#C1C1C1" stroke-width="2"/>
<path d="M19.1999 48.3998C15.6014 45.1998 17.1506 37.9815 19.6007 37.2252V25.6553C19.6007 22.1006 24.4026 21.3825 24.4026 25.6553V34.3511M24.4026 37.3759V34.3511M24.4026 34.3511C24.8563 31.4019 29.885 31.3868 28.902 37.3759C29.2045 33.6705 35.0272 33.6327 33.477 39.758C34.3861 36.166 38.1277 36.4307 38.1277 40.5898C38.1277 40.5898 38.0002 43.5998 36.8002 44.7998" stroke="#C1C1C1" stroke-width="2"/>
</g>
</svg>
