<svg width="48" height="48" viewBox="0 0 48 48" fill="none" xmlns="http://www.w3.org/2000/svg">
<circle cx="24" cy="24" r="23.5" stroke="#C1C1C1"/>
<mask id="mask0_160_820" style="mask-type:alpha" maskUnits="userSpaceOnUse" x="0" y="0" width="48" height="48">
<circle cx="24" cy="24" r="24" fill="#C1C1C1"/>
</mask>
<g mask="url(#mask0_160_820)">
<path d="M35.1232 27.5032C35.1059 27.3952 35.0826 27.2916 35.0535 27.193C33.1813 19.501 22.9384 20.0781 18.051 21.3281C18.051 19.5235 15.7389 19.2604 14.5828 19.3544V24.7963C14.1091 24.8865 13.5207 25.943 13.2858 26.4599H11.1992V29.8435V30.0127H13.2858C13.4888 31.2984 15.6825 33.0109 16.7539 33.5936L18.051 37.4746H21.4346V34.8343C23.3294 35.4884 25.5137 35.1068 26.369 34.8343V37.4746H29.8371L31.0778 33.5936C34.1079 32.238 35.4092 29.2788 35.1232 27.5032ZM35.1232 27.5032L37.7322 26.4881C39.8187 25.5576 38.7924 22.8338 36.3787 23.2173" stroke="#C1C1C1" stroke-width="2"/>
<circle cx="23.9709" cy="13.1799" r="3.84981" stroke="#C1C1C1" stroke-width="2"/>
<line x1="24.3516" y1="11.6563" x2="24.3516" y2="14.7015" stroke="#C1C1C1" stroke-width="2"/>
<line x1="21.4336" y1="23.7412" x2="26.6218" y2="23.7412" stroke="#C1C1C1" stroke-width="2"/>
<line x1="18.9375" y1="25.7559" x2="18.9375" y2="27.504" stroke="#C1C1C1" stroke-width="2"/>
</g>
</svg>
