<svg width="48" height="48" viewBox="0 0 48 48" fill="none" xmlns="http://www.w3.org/2000/svg">
<circle cx="24" cy="24" r="23.5" stroke="#C1C1C1"/>
<path d="M12 25.6875V34M15.0435 19.4531V34M19 13V18.9375M19 34V30.8438" stroke="#C1C1C1"/>
<path d="M35.4855 25.5C35.2267 29.9617 31.5266 33.5 27 33.5C22.3056 33.5 18.5 29.6944 18.5 25C18.5 20.3056 22.3056 16.5 27 16.5C28.0327 16.5 29.0214 16.6839 29.936 17.0205L26.5417 24.8001L26.2363 25.5H27H35.4855Z" stroke="#C1C1C1"/>
<path d="M30 23L32.9834 17C36.5 17.5 37.1564 21.2267 36.9667 23H30Z" stroke="#C1C1C1"/>
</svg>
