<svg id="Layer_1" data-name="Layer 1" xmlns="http://www.w3.org/2000/svg" viewBox="0 0 62 62"><defs><style>.cls-1{fill:#fff;}</style></defs><path class="cls-1" d="M31,0a31,31,0,0,0-4.22,61.71c.33,0,.66.09,1,.12a30.73,30.73,0,0,0,7.44-.12c.34,0,.67-.09,1-.16A31,31,0,0,0,31,0Zm0,61a28.56,28.56,0,0,1-3.22-.18V41.34h7.44V60.69A28,28,0,0,1,31,61Zm5.22-.47V41.34h12A1.3,1.3,0,0,0,49.5,40V26.8a1.3,1.3,0,0,0-1.3-1.3H14.8a1.3,1.3,0,0,0-1.3,1.3V31h1V26.8a.29.29,0,0,1,.3-.3H48.2a.29.29,0,0,1,.3.3V40a.3.3,0,0,1-.3.3H14.8a.3.3,0,0,1-.3-.3V35.59h-1V40a1.3,1.3,0,0,0,1.3,1.3h12V60.69a30,30,0,1,1,9.44-.16Z"/><path class="cls-1" d="M17.82,38.25h28a1.31,1.31,0,0,0,1.3-1.3V29.89a1.3,1.3,0,0,0-1.3-1.3h-28a1.3,1.3,0,0,0-1.3,1.3V37A1.3,1.3,0,0,0,17.82,38.25Zm21.63-1H33.21v-5.5a.29.29,0,0,1,.3-.3h5.64a.3.3,0,0,1,.3.3Zm4.83,0h-2v-5.5a.29.29,0,0,1,.3-.3H44a.3.3,0,0,1,.3.3ZM17.52,29.89a.3.3,0,0,1,.3-.3h28a.31.31,0,0,1,.3.3V37a.31.31,0,0,1-.3.3h-.51v-5.5a1.3,1.3,0,0,0-1.3-1.3H42.56a1.3,1.3,0,0,0-1.3,1.3v5.5h-.81v-5.5a1.3,1.3,0,0,0-1.3-1.3H33.51a1.3,1.3,0,0,0-1.3,1.3v5.5H31.4V31h-1v6.3H17.82a.3.3,0,0,1-.3-.3Z"/></svg>