<svg id="Layer_1" data-name="Layer 1" xmlns="http://www.w3.org/2000/svg" viewBox="0 0 62 62"><defs><style>.cls-1{fill:#fff;}</style></defs><path class="cls-1" d="M31,62A31,31,0,1,1,62,31,31,31,0,0,1,31,62ZM31,1A30,30,0,1,0,61,31,30,30,0,0,0,31,1Z"/><path class="cls-1" d="M31.8,43.5H29.2a1.3,1.3,0,0,1-1.3-1.3V40.93a1.3,1.3,0,0,1-1.3-1.23c-.5-8.26-2.71-10.57-4.7-12.49H20.8a1.3,1.3,0,0,1-1.3-1.3V25h1v.91a.29.29,0,0,0,.3.3H33v0H38.9v0h1.3a.29.29,0,0,0,.3-.3V19.8a.29.29,0,0,0-.3-.3H39v3.84a1.3,1.3,0,0,1-1.3,1.3H23.32a1.3,1.3,0,0,1-1.3-1.3V19.5H20.8a.29.29,0,0,0-.3.3v1.34h-1V19.8a1.3,1.3,0,0,1,1.3-1.3H38.48v0H40.2a1.3,1.3,0,0,1,1.3,1.3v6.11a1.3,1.3,0,0,1-1.3,1.3H38.93c-2.42.29-4,6.68-4.52,12.51a1.32,1.32,0,0,1-1.3,1.21h0V42.2A1.3,1.3,0,0,1,31.8,43.5Zm-2.9-2.57V42.2a.29.29,0,0,0,.3.3h2.6a.29.29,0,0,0,.3-.3V40.93Zm3.7-.5v-.5h.51a.32.32,0,0,0,.31-.29c.15-1.8.93-9.62,3.59-12.43H33.52v3.85a1.3,1.3,0,0,1-1.3,1.3H28.36a1.3,1.3,0,0,1-1.3-1.3V27.21H23.31c2.19,2.31,3.85,5.15,4.29,12.42a.31.31,0,0,0,.3.3h4.7ZM28.06,27.21v3.85a.3.3,0,0,0,.3.3h3.86a.31.31,0,0,0,.3-.3V27.21ZM23,19.5v3.84a.29.29,0,0,0,.3.3H37.68a.29.29,0,0,0,.3-.3V19.5ZM36.8,22.07H24.2v-1H36.8Z"/></svg>